.
..............................Site Info...........................

 -   http://www.scenetime.com  *_*   

Due to high demands SceneTime is going to Close sign up on march/15, hurry up! get in before the doors are closed.

     We care to share . Join us on  http://www.scenetime.com 

    Be the first to get new release at  http://www.scenetime.com

        Seed back for speed


...................................NFO:.................................................








































          
          
              
              
                    
                    
                    
                    

Recoil.2011.BRRiP.AC3-5.1.XviD-SiC

Poster:
[img]http://img560.imageshack.us/img560/624/recoilx.jpg[/img]

IMDB Link: 
http://www.imdb.com/title/tt1839591/

Description:
A cop turns vigilante after his family is murdered.

MediaInfo:
General
Complete name                    : Recoil.2011.BRRiP.AC3-5.1.XviD-SiC.avi
Format                           : AVI
Format/Info                      : Audio Video Interleave
File size                        : 1.40 GiB
Duration                         : 1h 33mn
Overall bit rate                 : 2 130 Kbps

Video
ID                               : 0
Format                           : MPEG-4 Visual
Format profile                   : Advanced Simple@L5
Format settings, BVOP            : Yes
Format settings, QPel            : No
Format settings, GMC             : No warppoints
Format settings, Matrix          : Default (H.263)
Muxing mode                      : Packed bitstream
Codec ID                         : XVID
Codec ID/Hint                    : XviD
Duration                         : 1h 33mn
Bit rate                         : 1 738 Kbps
Width                            : 720 pixels
Height                           : 400 pixels
Display aspect ratio             : 16:9
Frame rate                       : 23.976 fps
Resolution                       : 8 bits
Colorimetry                      : 4:2:0
Scan type                        : Progressive
Bits/(Pixel*Frame)               : 0.252
Stream size                      : 1.14 GiB (82%)
Writing library                  : XviD 64

Audio
ID                               : 1
Format                           : AC-3
Format/Info                      : Audio Coding 3
Format_Settings_ModeExtension    : CM (complete main)
Codec ID                         : 2000
Duration                         : 1h 33mn
Bit rate mode                    : Constant
Bit rate                         : 384 Kbps
Channel(s)                       : 6 channels
Channel positions                : Front: L C R, Side: L R, LFE
Sampling rate                    : 48.0 KHz
Stream size                      : 258 MiB (18%)
Alignment                        : Aligned on interleaves
Interleave, duration             : 64 ms (1.53 video frames)
Interleave, preload duration     : 192 ms
Title                            : 6ch English

Screenshots:
[img]http://img46.imageshack.us/img46/9459/recoil2011brripac351xvi.png[/img]
[img]http://img263.imageshack.us/img263/9459/recoil2011brripac351xvi.png[/img]
[img]http://img856.imageshack.us/img856/9459/recoil2011brripac351xvi.png[/img]
[img]http://img33.imageshack.us/img33/9459/recoil2011brripac351xvi.png[/img]

Note: 
      

Source : BluRay-CHD Thanks!!!

Enjoy!

Respects to T00NG0D, ELEKTRI4KA, PA, YeFsTe, MrRep and everyone in the struggle...